<svg width="130" height="40" viewBox="0 0 130 40" fill="none" xmlns="http://www.w3.org/2000/svg">
<g id="Logo-fin">
<g id="Group">
<path id="Vector" d="M99.1311 28.4266C99.0175 28.7422 98.8962 29.0521 98.7637 29.3657C98.8944 29.0521 99.0175 28.7459 99.1311 28.4266Z" fill="#263140"/>
<path id="Vector_2" d="M100.175 24.0222C100.137 24.3584 100.088 24.6909 100.029 25.0233C100.086 24.6909 100.135 24.3584 100.175 24.0222Z" fill="#263140"/>
<path id="Vector_3" d="M100.317 20.8574C100.317 20.5344 100.29 20.2132 100.266 19.8901C100.292 20.2038 100.309 20.525 100.317 20.8574Z" fill="#263140"/>
<path id="Vector_4" d="M100.321 22.0013C100.321 21.7252 100.321 21.4472 100.321 21.1711C100.33 21.4472 100.328 21.7233 100.321 22.0013Z" fill="#263140"/>
<path id="Vector_5" d="M130 8.78039V24.5218C130 32.5568 122.629 39.3429 113.902 39.3429C108.084 39.3429 102.87 36.3095 100.052 31.8995C102.01 28.2745 102.881 23.9471 102.514 19.5445C102.144 15.0893 100.531 10.946 97.9399 7.74548C98.1849 6.43197 98.8856 5.24488 99.9206 4.39C100.956 3.53512 102.26 3.06635 103.607 3.06495C105.134 3.06694 106.599 3.6698 107.679 4.74127C108.759 5.81275 109.366 7.26534 109.368 8.78039V24.5218C109.368 26.092 111.347 27.9157 113.9 27.9157C116.207 27.9157 118.47 26.2347 118.47 24.5218V8.78039C118.471 8.02892 118.621 7.28497 118.911 6.59102C119.202 5.89706 119.628 5.26671 120.164 4.73595C120.701 4.2052 121.337 3.78446 122.038 3.49774C122.738 3.21102 123.489 3.06396 124.246 3.06495C125.773 3.06892 127.235 3.67266 128.314 4.74392C129.392 5.81518 129.999 7.26664 130 8.78039Z" fill="#263140"/>
<path id="Vector_6" d="M29.9294 11.7104C28.4195 14.6508 27.6366 17.9052 27.6454 21.2049C27.6401 25.4435 28.9333 29.5836 31.3536 33.0771V33.3964C31.3521 34.9118 30.7445 36.3647 29.664 37.4362C28.5835 38.5077 27.1185 39.1104 25.5905 39.1119C24.0628 39.1099 22.5982 38.507 21.5182 37.4355C20.4381 36.3641 19.8307 34.9115 19.8292 33.3964V26.9184H11.5282V33.3964C11.5272 34.9116 10.9199 36.3645 9.83974 37.4361C8.75956 38.5077 7.29474 39.1104 5.76689 39.1119C4.23919 39.1099 2.77467 38.507 1.6946 37.4355C0.61453 36.3641 0.00711855 34.9115 0.00561523 33.3964V9.01141C0.00761966 7.49669 0.615255 6.04458 1.69527 4.97351C2.77529 3.90244 4.23952 3.29984 5.76689 3.29785C7.29442 3.29934 8.75895 3.90178 9.83907 4.97296C10.9192 6.04414 11.5267 7.49654 11.5282 9.01141V15.4894H19.8292V9.01141C19.8312 7.49669 20.4388 6.04458 21.5188 4.97351C22.5989 3.90244 24.0631 3.29984 25.5905 3.29785C27.1182 3.29934 28.5829 3.90172 29.6633 4.97285C30.7437 6.04397 31.3516 7.49637 31.3536 9.01141V9.33635C30.8267 10.0957 30.3509 10.8888 29.9294 11.7104Z" fill="#263140"/>
<g id="Group_2">
<path id="Vector_7" d="M81.1732 14.6763C80.9176 14.6763 80.6581 14.6763 80.3967 14.6763C80.7244 14.6763 81.0482 14.6763 81.3664 14.6763H81.1732ZM90.3852 37.9249C90.6333 37.8179 90.8776 37.7071 91.1163 37.5887C90.8776 37.7052 90.6333 37.8179 90.3852 37.9249ZM98.7639 29.3584C98.8965 29.0522 99.0177 28.7423 99.1313 28.4192C99.0177 28.7461 98.8946 29.0522 98.7639 29.3584ZM100.029 25.0234C100.088 24.691 100.137 24.3585 100.175 24.0223C100.135 24.3585 100.086 24.691 100.029 25.0234ZM100.266 19.8808C100.29 20.2039 100.307 20.5251 100.317 20.8481C100.309 20.5251 100.292 20.2039 100.266 19.8808ZM100.324 21.1712C100.324 21.4473 100.324 21.7253 100.324 22.0013C100.328 21.7234 100.33 21.4473 100.324 21.1712Z" fill="#263140"/>
<path id="Vector_8" d="M100.324 21.1711C100.292 17.8275 99.4344 14.5425 97.8263 11.6035C97.4133 10.8662 96.9481 10.1588 96.4343 9.48669C96.2241 9.21623 96.01 8.9514 95.7847 8.69408C94.7762 7.53318 93.6 6.52681 92.2942 5.70771C91.9093 5.4652 91.5123 5.24204 91.1048 5.03906C90.7431 4.85124 90.37 4.68595 89.9931 4.53006C88.2286 3.82103 86.3553 3.41516 84.4534 3.32987C82.3587 3.29794 80.0785 3.31672 77.9308 3.27915C75.5653 3.29793 73.1638 3.17773 70.821 3.482C68.1222 4.13375 66.287 6.74636 66.4896 9.49233C71.3058 16.2915 71.2112 26.2574 66.4896 32.927C66.4281 33.9415 66.6234 34.9552 67.0578 35.8758C67.5286 36.8454 68.2656 37.6636 69.1842 38.2364C70.1029 38.8091 71.1658 39.1133 72.2509 39.1138H76.8474C83.067 39.1138 86.1276 39.1796 87.7393 38.819C90.8545 38.0764 93.6684 36.4119 95.8074 34.0464C95.9968 33.8435 96.171 33.6351 96.3434 33.4209C96.5157 33.2068 96.654 33.0265 96.8055 32.8255C99.2581 29.4767 100.383 25.2845 100.324 21.1711ZM88.9192 21.7966C88.8056 23.0212 88.5404 24.2665 87.8662 25.3107C87.6542 25.6443 87.3996 25.9492 87.1087 26.2179C86.5408 26.7194 85.8672 27.089 85.1371 27.2998C82.8114 27.9722 80.4137 27.6754 78.0084 27.6905V14.7307C78.8057 14.7307 79.6088 14.6988 80.4042 14.6875C83.461 14.6086 87.2128 14.7758 88.3927 18.1378C88.8217 19.3081 89.0009 20.554 88.9192 21.7966Z" fill="#263140"/>
</g>
<g id="Group_3">
<path id="Vector_9" d="M59.4954 0.544434C59.5499 0.612635 59.5981 0.685559 59.6394 0.762314C59.5983 0.68542 59.5501 0.612475 59.4954 0.544434ZM37.9768 1.01024C38.0006 0.924027 38.033 0.840351 38.0734 0.760434C38.0322 0.839997 37.9998 0.923757 37.9768 1.01024Z" fill="#263140"/>
<path id="Vector_10" d="M66.4821 14.2836C65.2029 11.1003 63.0745 8.32209 60.3249 6.2467C60.3401 6.14528 59.806 1.38398 59.8041 1.28068C59.7663 0.930834 59.5993 0.607228 59.3353 0.372139C59.0713 0.137049 58.729 0.00708014 58.3742 0.00723521C57.7132 -0.163683 54.2815 2.74756 53.7171 3.03305C50.5364 2.20288 47.1933 2.20288 44.0127 3.03305C43.4218 2.73066 40.0355 -0.148658 39.3556 0.00723521C39.0008 0.00786131 38.6587 0.138055 38.3946 0.372953C38.1305 0.60785 37.9629 0.930998 37.9238 1.28068C37.9238 1.38586 37.3954 6.13965 37.4029 6.24483C23.1342 16.8812 30.7307 39.9965 48.8687 39.9965C62.0579 40.2539 71.5028 26.0996 66.4821 14.2836ZM48.8687 28.5581C39.134 28.3872 39.1037 14.047 48.8308 13.8329C58.6053 13.97 58.6413 28.391 48.8687 28.5675V28.5581Z" fill="#263140"/>
</g>
</g>
</g>
</svg>
